<?xml version="1.0" encoding="UTF-8" standalone="no"?><!DOCTYPE svg PUBLIC "-//W3C//DTD SVG 1.1//EN" "http://www.w3.org/Graphics/SVG/1.1/DTD/svg11.dtd"><svg width="100%" height="100%" viewBox="0 0 360 360" version="1.1" xmlns="http://www.w3.org/2000/svg" xmlns:xlink="http://www.w3.org/1999/xlink" xml:space="preserve" xmlns:serif="http://www.serif.com/" style="fill-rule:evenodd;clip-rule:evenodd;stroke-linejoin:round;stroke-miterlimit:2;"><rect id="die_proficiency" x="0" y="0" width="360" height="360" style="fill:none;"/><path id="BG-Proficiency" d="M90,300l-50,-75l0,-92l53,-73l87,-30l90,30l54,75l0,95l-54,70l-90,30l-90,-30Z" style="fill:#fdef40;"/><g id="layer1"><path id="path2519" d="M90.879,54.379l-2.014,1.451l-54.811,74.925l-0.774,2.355l-0.304,92.833l0.77,2.359l54.319,75.284l2.002,1.464l88.197,28.975l2.479,0.006l88.382,-28.405l2.011,-1.45l54.812,-74.926l0.773,-2.362l0.303,-92.833l-0.769,-2.36l-54.319,-75.282l-2.003,-1.464l-88.196,-28.975l-2.481,-0.005l-88.377,28.41Zm3.697,7.243l82.707,-26.555l-1.832,54.598l-81.949,59.313l-50.122,-17.351l51.196,-70.005Zm88.776,-26.654l82.841,27.217l50.888,70.524l-53.876,16.587l-81.692,-59.578l1.839,-54.75Zm-142.057,102.346l50.285,17.406l31.087,96.265l-31.668,42.958l-49.988,-69.275l0.284,-87.354Zm137.135,-42.864l81.151,59.185l-31.212,95.469l-100.439,-0.182l-30.864,-95.581l81.364,-58.891Zm86.615,60.629l53.931,-16.608l-0.285,87.102l-51.448,70.328l-33.609,-44.739l31.411,-96.083Zm-137.482,99.484l101.174,0.183l33.543,44.655l-82.767,26.573l-84.216,-27.671l32.266,-43.74Z" style="fill-opacity:0.99;fill-rule:nonzero;"/></g></svg>