<?xml version="1.0" encoding="UTF-8" standalone="no"?><!DOCTYPE svg PUBLIC "-//W3C//DTD SVG 1.1//EN" "http://www.w3.org/Graphics/SVG/1.1/DTD/svg11.dtd"><svg width="100%" height="100%" viewBox="0 0 360 360" version="1.1" xmlns="http://www.w3.org/2000/svg" xmlns:xlink="http://www.w3.org/1999/xlink" xml:space="preserve" xmlns:serif="http://www.serif.com/" style="fill-rule:evenodd;clip-rule:evenodd;stroke-linecap:round;stroke-linejoin:round;stroke-miterlimit:1.5;"><rect id="die_ability" x="0" y="0" width="360" height="360" style="fill:none;"/><path id="BG-Ability" d="M177,350l-141,-100l4,-170l135,-64l135,64l0,174l-133,96Z" style="fill:#7bcc75;stroke:#000;stroke-width:1px;"/><g id="layer1"><path id="path2521" d="M173.935,13.45l-0.654,0.047c-0,0.001 -0.548,0.141 -0.548,0.141c0,-0 0.101,0.267 0.181,0.466l-0.327,-0.333l-134.298,61.769c-0.301,0.07 -0.648,0.21 -1.084,0.466c-0.705,0.401 -1.269,1.402 -1.157,1.2l-0.413,1.503l-1.605,172.872l0.187,0.047c-0.134,0.6 -0.148,1.441 0.3,2.283c0.514,0.987 1.486,1.514 2.134,1.694c0.101,0.047 0.148,0 0.247,0.015l139.199,95.315l3.535,-0.046c22.116,-16.124 55.742,-40.28 83.627,-60.431c13.942,-10.075 26.448,-19.149 35.376,-25.725c4.465,-3.291 8.032,-5.947 10.458,-7.818c1.214,-0.935 2.135,-1.662 2.79,-2.215c0.326,-0.267 0.567,-0.466 0.856,-0.788c0.147,-0.14 0.293,-0.211 0.614,-0.834c0.148,-0.267 0.521,-0.755 0.34,-1.857l-1.602,-172.518l-0.273,-1.243c-0.567,-1.242 -1.339,-1.502 -1.748,-1.681c-0.166,-0.07 -0.234,-0.07 -0.36,-0.14l-133.707,-61.497l-0.066,-0.014c-0.494,-0.267 -0.661,-0.333 -0.871,-0.401c-0.066,-0.014 0.26,-0.002 -0.601,-0.211c-0.113,-0.014 -0.547,-0.07 -0.547,-0.07l0.017,0.004Zm1.57,0.535l0.012,0.002c0.008,0.008 0.008,0.008 0.016,0.014c-0,0.014 0.066,0.047 0.134,0.141l-0,0.002c-0.05,-0.047 -0.101,-0.071 -0.134,-0.141c-0.01,-0.006 -0.033,-0.014 -0.033,-0.047l0.005,0.029Zm0.588,0.466c0.009,0.006 0.015,0.015 0.015,0.015c0,-0 0.08,0.14 0.148,0.21c-0.08,-0.07 -0.112,-0.14 -0.166,-0.21l0.003,-0.015Zm-2.218,8.216l131.412,225.832l-260.264,-0.889l128.852,-224.943Zm-7.536,0.701l-126.084,216.676l1.481,-159.367l124.603,-57.309Zm15.031,0.001l124.604,57.308l1.479,159.367l-40.526,-69.643l-85.557,-147.032Zm120.472,231.301c-2.051,1.542 -3.909,2.95 -6.844,5.113c-8.896,6.554 -21.393,15.621 -35.33,25.692c-27.288,19.72 -59.744,43.044 -81.894,59.178l-130.144,-89.117l254.212,-0.866Z" style="fill-opacity:0.99;fill-rule:nonzero;"/></g></svg>